<svg xmlns="http://www.w3.org/2000/svg" xmlns:xlink="http://www.w3.org/1999/xlink" width="1600" height="975"><path fill="none" stroke="black" d="M306.25 443.75L306.25 443.75Q303.13 468.75 271.88 475L271.88 475Q246.88 478.13 237.50 450L237.50 450Q209.38 400 184.38 328.13L184.38 328.13Q168.75 287.50 190.63 268.75L190.63 268.75Q209.38 259.38 221.88 271.88L221.88 271.88Q228.13 278.13 234.38 281.25L234.38 281.25Q300 262.50 378.13 246.88L378.13 246.88L378.13 134.38Q378.13 93.75 375 81.25L375 81.25Q375 75 371.88 68.75L371.88 68.75Q371.88 56.25 390.63 56.25L390.63 56.25Q425 65.63 421.88 134.38L421.88 134.38Q421.88 150 421.88 184.38L421.88 184.38Q418.75 221.88 418.75 240.63L418.75 240.63Q484.38 228.13 537.50 228.13L537.50 228.13Q578.13 225 603.13 256.25L603.13 256.25Q631.25 287.50 615.63 309.38L615.63 309.38Q587.50 356.25 537.50 400L537.50 400Q543.75 403.13 543.75 409.38L543.75 409.38Q540.63 437.50 506.25 434.38L506.25 434.38Q468.75 428.13 415.63 431.25L415.63 431.25Q415.63 443.75 412.50 468.75L412.50 468.75Q412.50 487.50 412.50 493.75L412.50 493.75Q412.50 525 409.38 581.25L409.38 581.25Q409.38 715.63 403.13 746.88L403.13 746.88Q400 790.63 384.38 793.75L384.38 793.75Q381.25 796.88 375 796.88L375 796.88Q368.75 796.88 365.63 793.75L365.63 793.75Q365.63 787.50 362.50 787.50L362.50 787.50Q362.50 787.50 362.50 775L362.50 775Q359.38 762.50 359.38 759.38L359.38 759.38Q371.88 581.25 375 434.38L375 434.38Q337.50 437.50 306.25 443.75ZM462.50 396.88L462.50 396.88Q506.25 340.63 543.75 278.13L543.75 278.13Q550 268.75 546.88 265.63L546.88 265.63Q543.75 259.38 531.25 262.50L531.25 262.50Q503.13 265.63 456.25 271.88L456.25 271.88Q431.25 275 418.75 275L418.75 275Q418.75 296.88 415.63 343.75L415.63 343.75Q415.63 381.25 415.63 400L415.63 400Q425 400 440.63 396.88L440.63 396.88Q456.25 396.88 462.50 396.88ZM375 403.13L375 403.13Q375 346.88 378.13 284.38L378.13 284.38Q300 300 259.38 318.75L259.38 318.75Q265.63 340.63 281.25 384.38L281.25 384.38Q287.50 403.13 290.63 412.50L290.63 412.50Q312.50 409.38 375 403.13ZM1334.38 556.25L1328.13 556.25Q1318.75 556.25 1293.75 553.13L1293.75 553.13Q1275 550 1271.88 550L1271.88 550Q1243.75 550 1215.63 550L1215.63 550Q1215.63 575 1215.63 628.13L1215.63 628.13Q1212.50 687.50 1212.50 715.63L1212.50 715.63Q1209.38 743.75 1200 762.50L1200 762.50Q1190.63 778.13 1184.38 778.13L1184.38 778.13Q1178.13 775 1181.25 762.50L1181.25 762.50Q1181.25 759.38 1181.25 759.38L1181.25 759.38Q1178.13 753.13 1175 728.13L1175 728.13Q1178.13 700 1178.13 640.63L1178.13 640.63Q1181.25 581.25 1181.25 553.13L1181.25 553.13Q1168.75 553.13 1146.88 559.38L1146.88 559.38Q1125 562.50 1112.50 565.63L1112.50 565.63Q1109.38 565.63 1096.88 565.63L1096.88 565.63Q1084.38 568.75 1078.13 568.75L1078.13 568.75Q1059.38 568.75 1059.38 559.38L1059.38 559.38Q1065.63 537.50 1087.50 534.38L1087.50 534.38Q1087.50 540.63 1096.88 540.63L1096.88 540.63Q1140.63 534.38 1181.25 531.25L1181.25 531.25Q1181.25 493.75 1181.25 456.25L1181.25 456.25Q1096.88 462.50 1021.88 478.13L1021.88 478.13Q1012.50 481.25 993.75 487.50L993.75 487.50Q968.75 496.88 956.25 500L956.25 500Q950 500 943.75 503.13L943.75 503.13Q940.63 506.25 937.50 506.25L937.50 506.25Q881.25 500 871.88 478.13L871.88 478.13Q871.88 475 875 475L875 475Q887.50 465.63 912.50 462.50L912.50 462.50Q1012.50 456.25 1109.38 443.75L1109.38 443.75Q1109.38 443.75 1106.25 440.63L1106.25 440.63Q1087.50 415.63 1081.25 396.88L1081.25 396.88Q1081.25 390.63 1075 378.13L1075 378.13Q1068.75 378.13 1056.25 381.25L1056.25 381.25Q1043.75 384.38 1040.63 384.38L1040.63 384.38Q1040.63 384.38 1034.38 387.50L1034.38 387.50Q1021.88 390.63 1018.75 390.63L1018.75 390.63Q1009.38 393.75 993.75 393.75L993.75 393.75Q965.63 393.75 965.63 384.38L965.63 384.38Q965.63 371.88 971.88 371.88L971.88 371.88Q1000 365.63 1034.38 362.50L1034.38 362.50Q1037.50 362.50 1050 362.50L1050 362.50Q1062.50 359.38 1068.75 359.38L1068.75 359.38Q1068.75 356.25 1065.63 346.88L1065.63 346.88Q1062.50 331.25 1062.50 321.88L1062.50 321.88Q1065.63 309.38 1071.88 296.88L1071.88 296.88Q1075 293.75 1075 293.75L1075 293.75L1078.13 293.75Q1093.75 306.25 1106.25 337.50L1106.25 337.50Q1109.38 350 1118.75 350L1118.75 350L1121.88 350Q1162.50 337.50 1184.38 318.75L1184.38 318.75Q1187.50 303.13 1187.50 293.75L1187.50 293.75L1187.50 265.63Q1162.50 271.88 1137.50 271.88L1137.50 271.88Q1100 271.88 1100 259.38L1100 259.38Q1100 246.88 1121.88 243.75L1121.88 243.75Q1128.13 243.75 1131.25 243.75L1131.25 243.75Q1146.88 240.63 1178.13 234.38L1178.13 234.38Q1193.75 228.13 1200 228.13L1200 228.13Q1212.50 200 1231.25 175L1231.25 175Q1203.13 175 1171.88 184.38L1171.88 184.38Q1171.88 184.38 1175 190.63L1175 190.63Q1175 193.75 1175 196.88L1175 196.88Q1175 196.88 1175 206.25L1175 206.25Q1171.88 212.50 1171.88 215.63L1171.88 215.63Q1165.63 225 1156.25 231.25L1156.25 231.25Q1146.88 228.13 1137.50 215.63L1137.50 215.63Q1134.38 212.50 1134.38 209.38L1134.38 209.38Q1131.25 203.13 1131.25 196.88L1131.25 196.88Q1115.63 206.25 1096.88 209.38L1096.88 209.38Q1084.38 218.75 1059.38 221.88L1059.38 221.88Q1012.50 218.75 1006.25 196.88L1006.25 196.88Q1006.25 190.63 1009.38 184.38L1009.38 184.38Q1015.63 181.25 1043.75 181.25L1043.75 181.25Q1053.13 181.25 1068.75 178.13L1068.75 178.13Q1103.13 175 1121.88 171.88L1121.88 171.88Q1121.88 165.63 1118.75 153.13L1118.75 153.13Q1115.63 143.75 1112.50 137.50L1112.50 137.50Q1109.38 128.13 1096.88 106.25L1096.88 106.25Q1090.63 93.75 1087.50 87.50L1087.50 87.50Q1081.25 81.25 1081.25 71.88L1081.25 71.88Q1081.25 68.75 1084.38 68.75L1084.38 68.75Q1087.50 65.63 1087.50 65.63L1087.50 65.63Q1150 78.13 1165.63 121.88L1165.63 121.88Q1165.63 128.13 1168.75 153.13L1168.75 153.13Q1165.63 137.50 1171.88 165.63L1171.88 165.63Q1175 165.63 1178.13 165.63L1178.13 165.63Q1206.25 162.50 1240.63 153.13L1240.63 153.13Q1271.88 93.75 1281.25 59.38L1281.25 59.38Q1281.25 56.25 1278.13 56.25L1278.13 56.25Q1278.13 56.25 1275 56.25L1275 56.25Q1278.13 62.50 1268.75 62.50L1268.75 62.50Q1262.50 62.50 1262.50 53.13L1262.50 53.13Q1262.50 31.25 1287.50 31.25L1287.50 31.25Q1325 31.25 1321.88 65.63L1321.88 65.63Q1321.88 84.38 1303.13 121.88L1303.13 121.88Q1296.88 131.25 1287.50 146.88L1287.50 146.88Q1300 146.88 1318.75 143.75L1318.75 143.75Q1334.38 143.75 1340.63 143.75L1340.63 143.75Q1356.25 143.75 1371.88 153.13L1371.88 153.13Q1384.38 162.50 1375 175L1375 175Q1368.75 181.25 1353.13 181.25L1353.13 181.25Q1343.75 181.25 1321.88 175L1321.88 175Q1300 171.88 1287.50 171.88L1287.50 171.88L1275 171.88Q1271.88 178.13 1259.38 193.75L1259.38 193.75Q1250 209.38 1243.75 218.75L1243.75 218.75Q1259.38 218.75 1262.50 225L1262.50 225Q1262.50 253.13 1250 253.13L1250 253.13Q1234.38 253.13 1215.63 259.38L1215.63 259.38Q1221.88 296.88 1221.88 331.25L1221.88 331.25Q1221.88 337.50 1218.75 337.50L1218.75 337.50Q1262.50 331.25 1290.63 328.13L1290.63 328.13Q1312.50 303.13 1312.50 290.63L1312.50 290.63Q1312.50 284.38 1293.75 275L1293.75 275Q1290.63 275 1287.50 275L1287.50 275Q1287.50 275 1284.38 275L1284.38 275Q1278.13 271.88 1275 275L1275 275Q1278.13 265.63 1293.75 265.63L1293.75 265.63Q1300 265.63 1300 265.63L1300 265.63Q1337.50 268.75 1343.75 296.88L1343.75 296.88Q1343.75 296.88 1340.63 306.25L1340.63 306.25Q1334.38 315.63 1331.25 325L1331.25 325Q1346.88 321.88 1356.25 321.88L1356.25 321.88Q1375 331.25 1378.13 350L1378.13 350Q1381.25 353.13 1368.75 356.25L1368.75 356.25Q1362.50 359.38 1353.13 353.13L1353.13 353.13Q1343.75 350 1337.50 350L1337.50 350L1312.50 350Q1278.13 393.75 1234.38 421.88L1234.38 421.88Q1237.50 415.63 1240.63 412.50L1240.63 412.50L1237.50 412.50Q1228.13 412.50 1218.75 421.88L1218.75 421.88L1218.75 428.13Q1296.88 418.75 1381.25 418.75L1381.25 418.75Q1437.50 421.88 1437.50 459.38L1437.50 459.38Q1434.38 465.63 1421.88 468.75L1421.88 468.75Q1418.75 471.88 1403.13 465.63L1403.13 465.63Q1390.63 459.38 1387.50 459.38L1387.50 459.38Q1346.88 450 1306.25 453.13L1306.25 453.13Q1265.63 453.13 1218.75 453.13L1218.75 453.13Q1218.75 490.63 1215.63 528.13L1215.63 528.13Q1265.63 525 1303.13 525L1303.13 525Q1306.25 518.75 1293.75 503.13L1293.75 503.13Q1284.38 493.75 1284.38 490.63L1284.38 490.63Q1300 490.63 1312.50 509.38L1312.50 509.38Q1321.88 521.88 1325 521.88L1325 521.88Q1343.75 531.25 1340.63 550L1340.63 550Q1340.63 550 1334.38 556.25L1334.38 556.25ZM1181.25 434.38L1181.25 434.38Q1181.25 421.88 1184.38 396.88L1184.38 396.88Q1184.38 371.88 1184.38 362.50L1184.38 362.50Q1165.63 362.50 1146.88 365.63L1146.88 365.63Q1146.88 368.75 1143.75 371.88L1143.75 371.88Q1137.50 381.25 1137.50 384.38L1137.50 384.38Q1137.50 418.75 1131.25 440.63L1131.25 440.63Q1134.38 440.63 1140.63 440.63L1140.63 440.63Q1159.38 434.38 1181.25 434.38ZM1218.75 356.25L1218.75 356.25Q1218.75 384.38 1218.75 415.63L1218.75 415.63Q1234.38 403.13 1262.50 368.75L1262.50 368.75Q1271.88 359.38 1275 353.13L1275 353.13Q1246.88 353.13 1218.75 356.25ZM1184.38 340.63L1184.38 340.63L1184.38 321.88Q1181.25 328.13 1168.75 337.50L1168.75 337.50Q1165.63 340.63 1162.50 343.75L1162.50 343.75Q1168.75 343.75 1175 340.63L1175 340.63Q1181.25 340.63 1184.38 340.63Z"/></svg>