<svg width="829.966" height="162.825" viewBox="0 0 829.966 162.825" xmlns="http://www.w3.org/2000/svg">
  <g id="svgGroup" stroke-linecap="round" fill-rule="evenodd" font-size="9pt" stroke="#000" stroke-width="0.25mm" fill="none" style="stroke:#000;stroke-width:0.25mm;fill:none">
  <path d="M 71.419 73.355 A 45.232 45.232 0 0 0 71.68 68.7 Q 71.68 63.708 69.449 59.754 A 19.064 19.064 0 0 0 64.43 54.075 A 26.699 26.699 0 0 0 59.946 51.281 Q 53.559 48.102 44.18 47.2 Q 43.68 43.7 41.805 42.575 A 4.679 4.679 0 0 0 41.338 42.329 Q 39.682 41.574 37.93 42.45 Q 28.93 46.45 21.68 53.2 Q 14.43 59.95 9.305 68.575 Q 4.18 77.2 1.805 87.075 Q -0.57 96.95 0.18 106.7 Q 0.93 114.95 4.18 120.075 A 24.974 24.974 0 0 0 5.456 121.905 A 20.213 20.213 0 0 0 12.305 127.7 A 20.85 20.85 0 0 0 16.264 129.242 Q 19.295 130.081 22.725 130.081 A 28.45 28.45 0 0 0 23.305 130.075 A 29.471 29.471 0 0 0 28.109 129.577 A 34.465 34.465 0 0 0 35.68 127.2 A 52.243 52.243 0 0 0 36.302 126.947 A 45.236 45.236 0 0 0 52.555 115.7 A 77.829 77.829 0 0 0 54.233 113.809 A 69.03 69.03 0 0 0 63.68 99.7 A 83.394 83.394 0 0 0 65.685 95.392 A 70.962 70.962 0 0 0 69.805 82.825 A 101.362 101.362 0 0 0 70.693 78.428 Q 71.172 75.728 71.419 73.355 Z M 18.989 110.997 A 4.39 4.39 0 0 0 19.18 111.2 Q 20.68 112.7 22.68 113.2 A 8.31 8.31 0 0 0 23.711 113.263 Q 25.302 113.263 27.173 112.702 A 15.746 15.746 0 0 0 27.18 112.7 Q 29.68 111.95 32.055 110.825 A 32.303 32.303 0 0 0 35.602 108.873 A 28.764 28.764 0 0 0 36.43 108.325 Q 37.961 107.272 39.053 106.293 A 15.97 15.97 0 0 0 39.68 105.7 A 48.169 48.169 0 0 0 49.825 92.124 A 55.913 55.913 0 0 0 50.93 89.825 A 61.277 61.277 0 0 0 55.64 73.693 A 71.934 71.934 0 0 0 56.18 69.2 A 2.562 2.562 0 0 0 55.824 67.934 Q 55.367 67.122 54.323 66.309 A 10.058 10.058 0 0 0 54.18 66.2 A 12.512 12.512 0 0 0 52.058 64.931 Q 50.977 64.415 49.691 64.013 A 22.27 22.27 0 0 0 49.055 63.825 A 45.632 45.632 0 0 0 45.124 62.918 A 57.449 57.449 0 0 0 42.18 62.45 Q 39.68 62.117 37.291 62.117 A 33.132 33.132 0 0 0 34.93 62.2 A 102.967 102.967 0 0 0 28.78 69.906 A 115.241 115.241 0 0 0 27.68 71.45 Q 24.18 76.45 21.68 82.075 Q 19.18 87.7 17.93 93.825 A 43.968 43.968 0 0 0 17.037 102.639 A 44.641 44.641 0 0 0 17.18 106.2 Q 17.648 109.473 18.989 110.997 Z" id="0" vector-effect="non-scaling-stroke"/>
  <path d="M 106.43 139.95 Q 101.93 136.2 99.93 130.825 A 84.329 84.329 0 0 1 99.151 128.647 Q 97.93 125.067 97.93 123.7 A 314.826 314.826 0 0 1 96.735 96.416 A 297.461 297.461 0 0 1 101.18 44.95 Q 102.43 39.7 103.93 35.45 A 22.116 22.116 0 0 1 104.493 34.006 Q 105.711 31.2 106.93 31.2 A 7.061 7.061 0 0 1 108.801 31.466 Q 109.594 31.683 110.431 32.079 A 12.423 12.423 0 0 1 110.68 32.2 A 13.361 13.361 0 0 1 114.133 34.653 A 12.735 12.735 0 0 1 114.18 34.7 A 12.893 12.893 0 0 1 116.07 37.077 A 11.576 11.576 0 0 1 116.555 37.95 A 9.481 9.481 0 0 1 117.113 39.305 Q 117.356 40.065 117.413 40.772 A 5.341 5.341 0 0 1 117.43 41.2 Q 112.43 65.7 112.055 90.075 Q 111.68 114.45 113.18 138.7 Q 113.18 141.2 110.93 141.7 Q 109.68 141.95 108.555 141.325 Q 107.43 140.7 106.43 139.95 Z" id="1" vector-effect="non-scaling-stroke"/>
  <path d="M 193.801 52.635 A 35.078 35.078 0 0 0 192.43 46.2 A 14.744 14.744 0 0 0 190.378 43.154 A 19.417 19.417 0 0 0 187.805 40.7 A 18.274 18.274 0 0 0 183.901 38.339 A 25.135 25.135 0 0 0 179.93 36.95 Q 172.68 35.95 165.555 36.95 A 83.703 83.703 0 0 0 163.785 37.218 A 75.031 75.031 0 0 0 152.055 40.075 A 62.45 62.45 0 0 0 147.123 41.946 A 48.942 48.942 0 0 0 140.805 45.2 Q 135.93 48.2 133.68 50.95 A 16.618 16.618 0 0 0 133.352 51.851 Q 133.016 52.856 132.68 54.2 Q 132.284 55.783 132.358 56.897 A 4.272 4.272 0 0 0 132.43 57.45 Q 132.43 57.841 132.888 58.536 A 8.26 8.26 0 0 0 133.18 58.95 A 5.716 5.716 0 0 0 133.416 59.244 Q 133.792 59.681 134.291 60.093 A 10.143 10.143 0 0 0 135.305 60.825 A 6.174 6.174 0 0 0 135.354 60.856 Q 136.109 61.326 137.05 61.612 A 9.811 9.811 0 0 0 138.68 61.95 A 4.77 4.77 0 0 0 139.272 61.986 Q 141.109 61.986 143.68 60.7 A 371.725 371.725 0 0 0 145.159 60.038 Q 146.868 59.27 148.93 58.325 A 64.461 64.461 0 0 1 151.675 57.146 A 80.782 80.782 0 0 1 155.555 55.7 Q 159.18 54.45 162.93 53.45 A 43.713 43.713 0 0 1 164.847 52.984 A 37.412 37.412 0 0 1 170.18 52.2 Q 172.055 52.013 173.578 52.036 A 19.115 19.115 0 0 1 174.555 52.075 A 6.756 6.756 0 0 1 175.666 52.239 A 5.037 5.037 0 0 1 177.68 53.2 A 1.398 1.398 0 0 1 178.026 53.539 Q 178.347 53.974 178.535 54.772 A 8.234 8.234 0 0 1 178.68 55.575 Q 178.816 56.593 178.657 57.648 A 8.918 8.918 0 0 1 178.18 59.45 A 123.51 123.51 0 0 1 172.786 70.846 A 151.894 151.894 0 0 1 162.305 87.575 A 344.389 344.389 0 0 1 157.059 94.7 A 297.215 297.215 0 0 1 141.68 113.45 A 37.415 37.415 0 0 0 141.057 114.088 Q 138.9 116.35 138.68 117.45 A 32.064 32.064 0 0 0 138.663 117.535 Q 138.49 118.414 138.445 118.906 A 3.331 3.331 0 0 0 138.43 119.2 A 13.634 13.634 0 0 0 139.322 122.453 A 16.619 16.619 0 0 0 141.305 125.95 Q 143.68 129.2 147.18 128.7 A 267.73 267.73 0 0 0 148.184 128.598 Q 151.729 128.23 155.678 127.727 A 446.977 446.977 0 0 0 164.055 126.575 Q 173.43 125.2 183.18 123.7 Q 192.93 122.2 202.555 120.7 A 51956.064 51956.064 0 0 0 211.774 119.263 A 39393.48 39393.48 0 0 0 220.18 117.95 A 1.725 1.725 0 0 0 220.819 117.811 Q 221.397 117.578 222.124 116.958 A 11.804 11.804 0 0 0 222.805 116.325 Q 224.43 114.7 225.68 112.7 Q 226.266 111.763 226.66 110.852 A 10.099 10.099 0 0 0 227.305 108.825 A 4.088 4.088 0 0 0 227.356 108.505 Q 227.49 107.381 226.872 106.708 A 2.353 2.353 0 0 0 226.18 106.2 A 7.719 7.719 0 0 0 225.801 106.061 Q 224.442 105.599 221.305 104.95 A 33.482 33.482 0 0 0 220.962 104.881 Q 217.549 104.212 214.93 104.45 Q 212.094 104.708 208.893 105.065 A 415.78 415.78 0 0 0 202.555 105.825 Q 195.68 106.7 188.555 107.7 A 1856.45 1856.45 0 0 1 185.024 108.192 A 1663.138 1663.138 0 0 1 174.805 109.575 A 928.564 928.564 0 0 1 174.727 109.585 Q 169.807 110.235 166.063 110.677 A 352.928 352.928 0 0 1 163.68 110.95 Q 167.18 106.45 171.43 100.825 Q 175.68 95.2 179.68 89.075 A 188.757 188.757 0 0 0 180.668 87.546 A 169.966 169.966 0 0 0 186.93 76.95 A 146.33 146.33 0 0 0 187.356 76.158 Q 188.828 73.399 190.03 70.857 A 87.766 87.766 0 0 0 192.18 65.95 A 27.828 27.828 0 0 0 193.995 56.021 Q 193.995 54.346 193.801 52.635 Z" id="2" vector-effect="non-scaling-stroke"/>
  <path d="M 288.897 108.775 A 49.707 49.707 0 0 0 291.68 103.95 Q 295.43 96.45 294.18 87.95 A 35.597 35.597 0 0 0 293.913 86.376 A 29.782 29.782 0 0 0 287.93 73.2 A 22.812 22.812 0 0 0 286.303 71.327 A 23.938 23.938 0 0 0 278.93 66.2 Q 274.541 64.205 269.196 64.28 A 29.889 29.889 0 0 0 266.43 64.45 A 50.223 50.223 0 0 0 270.043 60.251 A 40.123 40.123 0 0 0 275.055 51.825 Q 276.425 48.668 277.142 45.709 A 26.551 26.551 0 0 0 277.93 39.45 A 25.598 25.598 0 0 0 277.899 38.176 A 20.358 20.358 0 0 0 273.68 26.45 Q 270.957 22.927 266.49 21.045 A 25.876 25.876 0 0 0 260.93 19.45 A 67.727 67.727 0 0 0 258.2 19.187 Q 249.178 18.507 242.43 20.575 A 42.171 42.171 0 0 0 241.822 20.766 Q 234.571 23.109 231.93 26.95 A 4.722 4.722 0 0 0 230.988 28.796 Q 230.794 29.536 230.794 30.4 A 8.079 8.079 0 0 0 230.805 30.825 Q 230.887 32.384 231.238 33.458 A 4.861 4.861 0 0 0 231.68 34.45 A 2.984 2.984 0 0 0 231.74 34.564 Q 232.044 35.112 232.583 35.542 A 4.778 4.778 0 0 0 233.43 36.075 A 5.042 5.042 0 0 0 233.567 36.141 Q 234.236 36.451 235.042 36.589 A 8.219 8.219 0 0 0 236.43 36.7 Q 238.18 36.7 239.93 36.2 A 8.372 8.372 0 0 0 240.789 35.903 A 9.078 9.078 0 0 0 243.18 34.45 A 23.698 23.698 0 0 1 245.13 33.836 A 27.934 27.934 0 0 1 249.18 33.075 Q 252.43 32.7 255.43 33.325 A 23.669 23.669 0 0 1 255.519 33.344 Q 256.898 33.637 258.091 34.063 A 14.413 14.413 0 0 1 260.555 35.2 A 6.195 6.195 0 0 1 261.614 35.974 A 3.958 3.958 0 0 1 262.93 38.45 A 14.758 14.758 0 0 1 263.097 40.641 A 13.746 13.746 0 0 1 261.055 47.825 A 31.465 31.465 0 0 1 259.058 50.759 A 36.616 36.616 0 0 1 254.18 55.95 Q 249.93 59.7 244.93 62.95 Q 239.93 66.2 235.68 68.95 Q 233.804 70.826 234.1 73.397 A 7.242 7.242 0 0 0 234.305 74.45 Q 235.18 77.7 237.18 80.45 A 5.579 5.579 0 0 0 237.547 80.85 A 4.069 4.069 0 0 0 240.18 82.075 Q 241.099 82.141 242.086 82.034 A 13.647 13.647 0 0 0 243.93 81.7 Q 250.18 79.45 256.43 78.575 A 51.938 51.938 0 0 1 258.948 78.283 Q 261.706 78.034 264.169 78.131 A 30.094 30.094 0 0 1 267.555 78.45 A 19.46 19.46 0 0 1 270.443 79.114 A 14.959 14.959 0 0 1 275.68 81.95 A 11.035 11.035 0 0 1 278.545 85.677 A 13.716 13.716 0 0 1 279.68 89.45 A 10.64 10.64 0 0 1 279.745 90.626 Q 279.745 94.644 276.805 99.325 A 49.059 49.059 0 0 1 272.797 104.784 A 66.742 66.742 0 0 1 267.805 110.075 A 88.334 88.334 0 0 1 263.143 114.217 A 108.263 108.263 0 0 1 254.805 120.45 A 129.643 129.643 0 0 1 250.666 123.144 A 111.139 111.139 0 0 1 240.18 128.95 A 11.301 11.301 0 0 0 239.636 129.312 Q 238.033 130.448 237.147 131.953 A 8.192 8.192 0 0 0 236.055 135.95 A 11.102 11.102 0 0 0 236.051 136.258 Q 236.051 138.502 236.977 140.299 A 8.843 8.843 0 0 0 239.43 143.2 Q 241.021 144.336 243.438 144.336 A 10.831 10.831 0 0 0 243.93 144.325 A 14.119 14.119 0 0 0 246.23 144.04 A 10.21 10.21 0 0 0 248.68 143.2 A 76.788 76.788 0 0 0 253.573 140.721 A 92.014 92.014 0 0 0 261.805 135.575 Q 268.43 130.95 274.305 125.575 A 109.286 109.286 0 0 0 277.329 122.702 A 93.806 93.806 0 0 0 284.68 114.575 Q 287.071 111.587 288.897 108.775 Z" id="3" vector-effect="non-scaling-stroke"/>
  <path d="M 306.18 99.45 Q 313.43 81.7 323.555 64.95 A 309.939 309.939 0 0 1 339.853 40.743 A 362.395 362.395 0 0 1 347.18 31.2 A 11.425 11.425 0 0 1 349.104 29.843 Q 351.077 28.715 354.009 27.839 A 36.4 36.4 0 0 1 354.055 27.825 Q 357.79 26.715 360.628 27.642 A 7.948 7.948 0 0 1 361.93 28.2 A 8.924 8.924 0 0 0 362.158 28.42 Q 362.479 28.72 362.667 28.818 A 0.738 0.738 0 0 0 362.68 28.825 Q 362.891 28.931 363.102 29.304 A 3.232 3.232 0 0 1 363.18 29.45 Q 363.386 28.833 363.76 27.371 A 118.281 118.281 0 0 0 363.93 26.7 A 13.393 13.393 0 0 1 365.71 23.607 A 11.52 11.52 0 0 1 367.43 21.825 A 6.074 6.074 0 0 1 368.939 20.886 Q 370.419 20.257 372.088 20.617 A 6.518 6.518 0 0 1 372.43 20.7 A 15.22 15.22 0 0 1 374.83 21.616 Q 376.078 22.227 376.978 23.02 A 6.939 6.939 0 0 1 378.305 24.575 A 9.321 9.321 0 0 1 379.576 28.103 Q 379.713 28.995 379.713 29.97 A 14.734 14.734 0 0 1 379.68 30.95 Q 376.68 45.2 374.555 60.075 A 437.075 437.075 0 0 0 372.241 79.499 A 527.632 527.632 0 0 0 371.18 91.95 Q 378.68 90.2 386.68 88.825 A 580.762 580.762 0 0 1 399.102 86.833 A 659.217 659.217 0 0 1 403.43 86.2 A 9.316 9.316 0 0 1 404.601 86.083 Q 405.322 86.055 406.115 86.124 A 15.034 15.034 0 0 1 406.805 86.2 Q 408.68 86.45 410.555 86.95 A 9.264 9.264 0 0 1 411.955 87.439 Q 412.709 87.776 413.29 88.229 A 5.342 5.342 0 0 1 413.555 88.45 A 3.296 3.296 0 0 1 414.449 89.693 A 3.351 3.351 0 0 1 414.68 90.95 A 6.424 6.424 0 0 1 413.551 94.528 Q 412.555 96.044 410.68 97.45 Q 406.68 100.45 401.93 101.45 Q 393.93 102.95 386.18 104.7 Q 378.43 106.45 370.68 108.45 A 490.031 490.031 0 0 0 370.513 121.339 A 528.952 528.952 0 0 0 370.555 127.95 Q 370.68 137.95 371.43 148.95 Q 371.68 151.95 369.555 153.7 A 7.053 7.053 0 0 1 367.811 154.773 Q 366.723 155.231 365.549 155.231 A 6.219 6.219 0 0 1 364.93 155.2 A 6.479 6.479 0 0 1 360.636 153.129 A 10.547 10.547 0 0 1 359.18 151.2 Q 356.93 147.45 356.43 143.2 A 174.878 174.878 0 0 1 356.411 143.079 A 164.388 164.388 0 0 1 354.68 127.95 Q 354.18 120.45 353.93 112.7 A 607.544 607.544 0 0 1 353.817 112.731 A 630.763 630.763 0 0 1 339.18 116.575 Q 331.68 118.45 324.43 120.2 A 21.757 21.757 0 0 1 322.075 120.606 Q 319.337 120.918 317.061 120.38 A 11.034 11.034 0 0 1 315.055 119.7 Q 311.18 117.95 308.93 114.575 Q 306.68 111.2 306.055 107.075 A 24.936 24.936 0 0 1 305.789 104.335 Q 305.698 102.057 306.073 99.991 A 17.556 17.556 0 0 1 306.18 99.45 Z M 361.43 37.2 Q 360.93 38.2 360.18 39.075 A 21.074 21.074 0 0 0 359.572 39.817 Q 359.279 40.192 359.038 40.54 A 12.226 12.226 0 0 0 358.93 40.7 Q 346.93 55.7 337.305 71.825 Q 327.68 87.95 321.18 105.45 Q 328.93 103.2 337.055 100.825 A 529.1 529.1 0 0 1 351.752 96.764 A 582.953 582.953 0 0 1 353.93 96.2 A 331.513 331.513 0 0 1 361.029 39.074 A 363.766 363.766 0 0 1 361.43 37.2 Z" id="4" vector-effect="non-scaling-stroke"/>
  <path d="M 441.43 81.2 A 212.388 212.388 0 0 0 452.211 80.919 A 236.315 236.315 0 0 0 455.93 80.7 Q 463.254 80.212 469.863 81.631 A 45.274 45.274 0 0 1 470.18 81.7 A 23.364 23.364 0 0 1 476.547 84.109 A 18.542 18.542 0 0 1 483.18 90.45 A 15.837 15.837 0 0 1 485.671 99.051 Q 485.671 101.049 485.21 103.174 A 24.736 24.736 0 0 1 484.43 105.95 A 51.529 51.529 0 0 1 478.211 117.905 A 56.815 56.815 0 0 1 478.18 117.95 Q 474.18 123.7 469.055 128.7 Q 463.93 133.7 458.305 138.2 A 603.593 603.593 0 0 1 450.078 144.669 A 528.814 528.814 0 0 1 447.43 146.7 A 9.152 9.152 0 0 1 445.268 147.736 Q 443.039 148.449 440.712 147.752 A 9.256 9.256 0 0 1 440.18 147.575 A 15.996 15.996 0 0 1 437.422 146.272 Q 435.758 145.269 434.619 143.93 A 9.957 9.957 0 0 1 434.43 143.7 A 15.792 15.792 0 0 1 433.53 142.572 Q 430.092 137.797 435.93 136.45 A 221.289 221.289 0 0 0 447.805 126.981 A 166.738 166.738 0 0 0 457.93 117.575 A 81.041 81.041 0 0 0 465.558 108.704 A 59.275 59.275 0 0 0 471.68 98.45 A 1.747 1.747 0 0 0 471.738 98.16 Q 471.902 96.657 468.93 96.2 Q 466.086 95.763 461.998 95.899 A 67.108 67.108 0 0 0 460.805 95.95 Q 455.93 96.2 450.18 96.7 Q 444.812 97.167 440.533 97.634 A 305.194 305.194 0 0 0 439.93 97.7 A 7.504 7.504 0 0 1 439.912 97.703 Q 438.417 97.949 436.18 97.7 A 14.835 14.835 0 0 1 432.453 96.772 A 17.15 17.15 0 0 1 431.68 96.45 Q 429.43 95.45 427.93 93.575 Q 426.43 91.7 426.43 88.7 Q 427.18 68.95 429.555 49.45 A 890.798 890.798 0 0 1 432.024 30.763 A 684.784 684.784 0 0 1 434.68 13.7 Q 435.18 11.2 437.055 10.7 Q 438.93 10.2 440.93 10.95 A 19.163 19.163 0 0 1 444.032 12.761 Q 445.902 14.117 447.124 15.816 A 12.008 12.008 0 0 1 447.305 16.075 A 11.998 11.998 0 0 1 448.284 17.785 Q 449.025 19.39 449.025 20.889 A 5.92 5.92 0 0 1 448.93 21.95 A 260.786 260.786 0 0 0 447.5 29.731 A 297.381 297.381 0 0 0 447.055 32.45 Q 446.18 37.95 445.43 43.7 A 335.688 335.688 0 0 1 461.67 42.577 A 274.955 274.955 0 0 1 470.805 42.325 A 203.466 203.466 0 0 1 472.947 42.314 Q 478.256 42.314 483.127 42.598 A 135.078 135.078 0 0 1 492.43 43.45 Q 495.68 43.95 499.055 44.575 Q 502.43 45.2 506.18 46.45 Q 508.93 46.95 510.43 49.575 A 5.809 5.809 0 0 1 510.809 50.363 Q 511.489 52.125 510.417 53.449 A 4.086 4.086 0 0 1 509.93 53.95 Q 507.075 55.294 504.84 56.13 A 34.586 34.586 0 0 1 502.805 56.825 Q 500.218 57.612 499.554 57.691 A 1.083 1.083 0 0 1 499.43 57.7 A 326.466 326.466 0 0 0 483.265 57.291 Q 468.753 57.291 455.367 58.666 A 232.593 232.593 0 0 0 443.43 60.2 Q 442.93 65.95 442.43 71.325 Q 441.93 76.7 441.43 81.2 Z" id="5" vector-effect="non-scaling-stroke"/>
  <path d="M 571.18 12.7 A 91.285 91.285 0 0 0 568.26 16.848 Q 566.983 18.766 565.619 20.979 A 195.808 195.808 0 0 0 562.805 25.7 A 162.133 162.133 0 0 0 557.681 35.333 A 208.042 208.042 0 0 0 553.805 43.7 A 243.524 243.524 0 0 0 547.594 59.403 A 275.85 275.85 0 0 0 545.68 64.95 Q 541.93 76.2 540.055 87.325 Q 538.18 98.45 538.555 108.825 A 53.857 53.857 0 0 0 540.009 119.681 A 43.921 43.921 0 0 0 542.68 127.45 Q 542.903 128.344 543.726 128.439 A 1.78 1.78 0 0 0 543.93 128.45 A 15.403 15.403 0 0 0 547.201 126.716 Q 549.606 125.071 552.055 122.325 A 49.17 49.17 0 0 0 558.777 112.6 A 54.923 54.923 0 0 0 559.18 111.825 Q 562.18 105.95 563.68 99.825 A 34.462 34.462 0 0 0 564.295 96.739 Q 564.791 93.429 564.424 90.767 A 14.25 14.25 0 0 0 564.18 89.45 Q 563.701 87.295 561.044 86.401 A 8.652 8.652 0 0 0 560.805 86.325 Q 557.93 85.45 554.93 84.575 Q 552.389 83.834 550.566 82.824 A 13.982 13.982 0 0 1 549.93 82.45 Q 547.93 81.2 549.43 78.2 A 5.591 5.591 0 0 1 549.727 77.927 Q 550.073 77.627 550.61 77.233 A 30.751 30.751 0 0 1 551.18 76.825 A 10.847 10.847 0 0 1 552.319 76.135 Q 553.243 75.645 554.43 75.2 A 16.172 16.172 0 0 1 556.981 74.486 A 20.724 20.724 0 0 1 558.93 74.2 A 17.259 17.259 0 0 1 560.597 74.117 Q 562.399 74.111 564.43 74.45 A 13.369 13.369 0 0 1 569.124 76.083 A 17.317 17.317 0 0 1 571.18 77.45 A 10.203 10.203 0 0 1 573.778 80.492 Q 574.57 81.864 575.128 83.616 A 22.892 22.892 0 0 1 575.68 85.7 A 40.839 40.839 0 0 1 576.911 95.641 A 42.063 42.063 0 0 1 576.43 101.95 Q 575.18 110.2 571.43 117.7 Q 567.68 125.2 561.93 131.575 A 55.956 55.956 0 0 1 553.249 139.439 A 49.354 49.354 0 0 1 549.43 141.95 A 12.68 12.68 0 0 1 545.286 143.512 A 11.784 11.784 0 0 1 543.18 143.7 A 21.427 21.427 0 0 1 536.554 141.254 A 18.636 18.636 0 0 1 531.305 136.7 A 35.411 35.411 0 0 1 524.932 124.082 A 52.942 52.942 0 0 1 524.93 124.075 A 58.341 58.341 0 0 1 522.83 110.118 A 65.167 65.167 0 0 1 522.805 109.075 Q 522.68 101.2 523.18 94.95 Q 525.18 70.2 535.055 46.825 Q 544.93 23.45 560.68 3.2 A 10.247 10.247 0 0 1 562.013 1.682 Q 563.481 0.33 565.18 0.075 Q 567.68 -0.3 569.68 1.2 A 5.672 5.672 0 0 1 570.978 2.525 Q 571.836 3.72 572.43 5.575 A 6.541 6.541 0 0 1 572.738 7.581 Q 572.738 9.931 571.18 12.7 Z" id="6" vector-effect="non-scaling-stroke"/>
  <path d="M 666.18 53.2 L 662.68 61.95 Q 656.43 83.45 650.93 104.825 Q 645.43 126.2 640.18 144.95 Q 639.18 148.95 635.93 151.075 A 11.18 11.18 0 0 1 634.517 151.868 Q 632.122 152.977 630.18 152.2 Q 629.225 151.818 628.416 150.707 A 8.188 8.188 0 0 1 627.93 149.95 A 14.823 14.823 0 0 1 626.973 147.914 A 19.998 19.998 0 0 1 626.305 145.825 A 23.79 23.79 0 0 1 625.594 141.477 A 26.587 26.587 0 0 1 625.555 140.825 A 35.928 35.928 0 0 1 625.513 139.117 Q 625.513 137.45 625.68 135.95 A 11268.354 11268.354 0 0 1 629.662 121.236 Q 631.709 113.691 634 105.279 A 19818.134 19818.134 0 0 1 635.555 99.575 Q 641.18 78.95 647.68 57.95 A 958.464 958.464 0 0 0 638.399 58.77 A 1081.488 1081.488 0 0 0 635.18 59.075 Q 628.68 59.7 622.43 60.2 Q 616.18 60.7 610.68 61.2 Q 605.18 61.7 601.18 62.2 Q 597.076 62.2 593.555 58.471 A 18.064 18.064 0 0 1 593.305 58.2 A 16.529 16.529 0 0 1 591.204 55.357 Q 590.002 53.265 589.748 51.108 A 9.905 9.905 0 0 1 589.68 49.95 A 2.314 2.314 0 0 1 590.347 48.324 A 3.698 3.698 0 0 1 590.93 47.825 A 7.724 7.724 0 0 1 592.141 47.124 A 5.851 5.851 0 0 1 593.43 46.7 A 200.851 200.851 0 0 1 599.908 45.817 Q 603.311 45.407 607.092 45.051 A 329.903 329.903 0 0 1 608.18 44.95 Q 616.43 44.2 624.93 43.575 Q 633.43 42.95 641.555 42.45 Q 649.68 41.95 655.93 41.95 A 4.02 4.02 0 0 1 655.965 41.95 Q 657.126 41.96 658.511 42.641 A 10.832 10.832 0 0 1 659.305 43.075 A 13.753 13.753 0 0 1 662.668 45.936 A 15.432 15.432 0 0 1 662.68 45.95 Q 664.18 47.7 665.18 49.7 A 12.148 12.148 0 0 1 665.739 50.987 Q 665.973 51.634 666.083 52.218 A 5.321 5.321 0 0 1 666.18 53.2 Z" id="7" vector-effect="non-scaling-stroke"/>
  <path d="M 716.43 93.45 L 717.43 93.45 A 39.201 39.201 0 0 1 724.922 96.371 A 28.39 28.39 0 0 1 732.805 102.325 A 21.149 21.149 0 0 1 738.429 116.927 A 27.034 27.034 0 0 1 738.43 117.2 A 23.279 23.279 0 0 1 734.374 130.264 A 30.202 30.202 0 0 1 732.68 132.575 Q 726.93 139.7 718.93 144.45 A 24.42 24.42 0 0 1 717.627 145.203 Q 716.178 145.987 714.048 146.961 A 112.797 112.797 0 0 1 712.68 147.575 A 66.759 66.759 0 0 1 705.953 150.106 A 76.18 76.18 0 0 1 703.555 150.825 Q 698.68 152.2 693.68 152.825 A 23.586 23.586 0 0 1 691.535 152.997 Q 687.853 153.119 684.93 151.95 A 6.527 6.527 0 0 1 683.265 151.006 Q 682.596 150.495 681.943 149.778 A 14.615 14.615 0 0 1 681.055 148.7 A 18.391 18.391 0 0 1 679.048 145.282 A 23.689 23.689 0 0 1 678.055 142.7 A 21.339 21.339 0 0 1 677.098 137.58 Q 677.016 136.358 677.055 135.075 A 17.605 17.605 0 0 1 678.134 129.607 A 22.7 22.7 0 0 1 679.43 126.7 A 347.701 347.701 0 0 1 689.684 107.73 A 380.792 380.792 0 0 1 690.43 106.45 Q 696.43 96.2 702.93 85.7 A 40.039 40.039 0 0 1 695.211 78.933 A 44.896 44.896 0 0 1 694.68 78.325 Q 690.93 73.95 688.68 68.45 A 36.321 36.321 0 0 1 686.178 58.155 A 41.493 41.493 0 0 1 686.055 56.575 Q 685.785 51.993 686.872 47.088 A 43.342 43.342 0 0 1 687.93 43.2 A 25.49 25.49 0 0 1 694.108 33.466 A 34.891 34.891 0 0 1 698.93 29.45 A 31.67 31.67 0 0 1 712.178 24.22 A 42.276 42.276 0 0 1 718.93 23.7 A 29.673 29.673 0 0 1 726.49 24.716 A 36.887 36.887 0 0 1 730.305 25.95 A 24.819 24.819 0 0 1 736.747 29.537 A 22.04 22.04 0 0 1 739.93 32.575 Q 743.68 36.95 744.055 43.2 Q 744.338 47.92 741.556 53.78 A 43.976 43.976 0 0 1 739.43 57.7 Q 733.43 66.7 727.68 75.575 Q 721.93 84.45 716.43 93.45 Z M 697.966 135.259 A 51.339 51.339 0 0 0 699.18 134.95 A 58.5 58.5 0 0 0 703.557 133.588 A 75.379 75.379 0 0 0 707.18 132.2 A 78.998 78.998 0 0 0 715.149 128.369 A 86.376 86.376 0 0 0 715.68 128.075 A 35.797 35.797 0 0 0 720.231 125.077 A 29.145 29.145 0 0 0 722.93 122.7 A 5.528 5.528 0 0 0 723.919 120.815 Q 724.755 117.924 722.055 114.2 A 49.652 49.652 0 0 0 718.932 110.345 Q 717.095 108.282 714.819 106.104 A 100.558 100.558 0 0 0 711.93 103.45 Q 711.538 103.254 711.376 103.058 A 0.576 0.576 0 0 1 711.305 102.95 Q 711.188 102.716 710.961 102.481 A 2.762 2.762 0 0 0 710.93 102.45 Q 705.93 110.45 701.68 118.825 Q 697.43 127.2 693.43 135.95 Q 695.093 135.95 697.966 135.259 Z M 725.18 50.95 A 28.422 28.422 0 0 0 726.276 48.958 Q 729.408 42.64 725.582 40.591 A 6.273 6.273 0 0 0 724.68 40.2 Q 718.43 38.45 712.055 40.325 A 14.564 14.564 0 0 0 704.512 45.619 A 21.77 21.77 0 0 0 702.18 49.45 Q 701.597 51.005 701.316 53.164 A 28.006 28.006 0 0 0 701.18 54.45 Q 701 56.606 701.337 59.021 A 27.055 27.055 0 0 0 701.68 60.95 A 20.362 20.362 0 0 0 703.575 66.123 A 24.425 24.425 0 0 0 704.555 67.825 A 18.705 18.705 0 0 0 708.449 72.225 A 23.071 23.071 0 0 0 710.43 73.7 Q 713.93 67.95 717.68 62.325 Q 721.43 56.7 725.18 50.95 Z" id="8" vector-effect="non-scaling-stroke"/>
  <path d="M 804.18 35.45 A 14.616 14.616 0 0 0 801.872 36.02 Q 799.33 36.852 796.055 38.7 A 42.84 42.84 0 0 0 790.059 42.821 A 53.323 53.323 0 0 0 786.555 45.95 A 48.234 48.234 0 0 0 779.351 54.928 A 54.758 54.758 0 0 0 778.43 56.45 Q 774.93 62.45 774.18 69.45 A 17.422 17.422 0 0 0 774.283 71.423 Q 774.514 73.442 775.266 74.55 A 3.081 3.081 0 0 0 776.18 75.45 Q 778.833 76.897 783.113 74.157 A 20.285 20.285 0 0 0 783.43 73.95 Q 788.68 70.7 793.305 65.45 Q 797.93 60.2 802.18 54.825 Q 806.43 49.45 810.18 44.575 A 69.766 69.766 0 0 1 812.922 41.218 Q 814.279 39.664 815.563 38.419 A 32.378 32.378 0 0 1 817.18 36.95 A 3.024 3.024 0 0 1 818.702 36.318 Q 819.26 36.243 819.912 36.33 A 6.659 6.659 0 0 1 820.555 36.45 A 10.419 10.419 0 0 1 823.418 37.61 A 13.058 13.058 0 0 1 824.68 38.45 Q 826.68 39.95 828.18 42.075 A 8.701 8.701 0 0 1 829.231 44.026 A 6.837 6.837 0 0 1 829.68 46.45 A 1824.688 1824.688 0 0 1 829.966 78.45 A 1658.876 1658.876 0 0 1 829.805 101.7 A 669.438 669.438 0 0 1 827.628 146.489 A 751.052 751.052 0 0 1 826.68 157.2 A 9.334 9.334 0 0 1 826.147 159.153 Q 825.629 160.439 824.737 161.317 A 5.647 5.647 0 0 1 824.305 161.7 A 5.345 5.345 0 0 1 822.94 162.508 Q 821.702 162.999 820.32 162.729 A 5.588 5.588 0 0 1 820.18 162.7 Q 812.329 161.545 811.73 155.272 A 11.272 11.272 0 0 1 811.68 154.2 Q 812.93 132.2 813.805 110.2 A 609.059 609.059 0 0 0 814.276 86 A 682.884 682.884 0 0 0 813.93 64.45 A 95.283 95.283 0 0 1 811.077 68.599 Q 809.527 70.738 807.706 73.039 A 158.13 158.13 0 0 1 807.18 73.7 Q 803.18 78.7 798.555 83.075 Q 793.93 87.45 788.555 90.325 A 24.58 24.58 0 0 1 782.298 92.688 A 21.189 21.189 0 0 1 777.68 93.2 A 28.589 28.589 0 0 1 772.386 92.743 Q 766.603 91.652 763.43 87.95 A 20.643 20.643 0 0 1 758.798 77.995 A 26.714 26.714 0 0 1 758.43 74.95 A 39.868 39.868 0 0 1 758.312 71.891 A 40.852 40.852 0 0 1 759.555 61.95 Q 761.18 55.45 764.305 49.45 Q 767.43 43.45 771.805 38.45 Q 776.18 33.45 781.43 29.7 Q 789.68 23.95 797.68 21.95 A 17.327 17.327 0 0 1 800.325 21.495 Q 806.036 20.98 810.482 24.818 A 17.674 17.674 0 0 1 811.43 25.7 A 4.929 4.929 0 0 1 812.235 27.119 Q 812.493 27.8 812.637 28.646 A 13.157 13.157 0 0 1 812.805 30.325 Q 812.923 33.284 812.257 34.787 A 3.921 3.921 0 0 1 812.18 34.95 A 6.736 6.736 0 0 1 808.468 36.531 A 8.507 8.507 0 0 1 807.93 36.575 A 8.938 8.938 0 0 1 807.513 36.586 Q 805.323 36.593 804.18 35.45 Z" id="9" vector-effect="non-scaling-stroke"/>
  </g>
</svg>